<?xml version="1.0" encoding="UTF-8" standalone="no"?>
<svg
   id="svg2"
   viewBox="0 0 1024 1024"
   version="1.1"
   sodipodi:docname="opticlogo.svg"
   width="1024"
   height="1024"
   inkscape:version="1.1.2 (0a00cf5339, 2022-02-04)"
   xmlns:inkscape="http://www.inkscape.org/namespaces/inkscape"
   xmlns:sodipodi="http://sodipodi.sourceforge.net/DTD/sodipodi-0.dtd"
   xmlns:xlink="http://www.w3.org/1999/xlink"
   xmlns="http://www.w3.org/2000/svg"
   xmlns:svg="http://www.w3.org/2000/svg"
   xmlns:rdf="http://www.w3.org/1999/02/22-rdf-syntax-ns#"
   xmlns:cc="http://creativecommons.org/ns#"
   xmlns:dc="http://purl.org/dc/elements/1.1/">
  <title
     id="Car">Optic Logo</title>
  <sodipodi:namedview
     id="namedview62"
     pagecolor="#505050"
     bordercolor="#eeeeee"
     borderopacity="1"
     inkscape:pageshadow="0"
     inkscape:pageopacity="0"
     inkscape:pagecheckerboard="0"
     showgrid="false"
     inkscape:zoom="0.34877642"
     inkscape:cx="280.9823"
     inkscape:cy="533.29293"
     inkscape:window-width="1720"
     inkscape:window-height="1371"
     inkscape:window-x="1720"
     inkscape:window-y="32"
     inkscape:window-maximized="0"
     inkscape:current-layer="layer1" />
  <defs
     id="defs4">
    <linearGradient
       id="radargradient">
      <stop
         id="stop1468"
         style="stop-color:#575a56;stop-opacity:1" />
      <stop
         id="stop3679"
         style="stop-color:#3c3c3c;stop-opacity:0.14274618"
         offset="0.36824334" />
      <stop
         id="stop1470"
         style="stop-color:#333333;stop-opacity:1"
         offset="0.97208786" />
    </linearGradient>
    <inkscape:path-effect
       effect="mirror_symmetry"
       start_point="0,768"
       end_point="1024,768"
       center_point="961.05466,836.936"
       id="path-effect2903"
       is_visible="true"
       lpeversion="1.1"
       mode="free"
       discard_orig_path="false"
       fuse_paths="false"
       oposite_fuse="false"
       split_items="false"
       split_open="false" />
    <linearGradient
       id="linearGradient4195">
      <stop
         id="stop4191" />
      <stop
         id="stop4193" />
    </linearGradient>
    <linearGradient
       id="linearGradient4197" />
    <linearGradient
       id="linearGradient4199" />
    <linearGradient
       id="linearGradient4201" />
    <linearGradient
       id="linearGradient4203" />
    <linearGradient
       id="linearGradient4205" />
    <linearGradient
       id="linearGradient4207" />
    <linearGradient
       id="linearGradient4209" />
    <linearGradient
       id="linearGradient4211" />
    <linearGradient
       id="linearGradient4213" />
    <linearGradient
       id="linearGradient4215" />
    <linearGradient
       id="linearGradient4217" />
    <linearGradient
       id="linearGradient4219" />
    <linearGradient
       id="linearGradient4221" />
    <linearGradient
       id="linearGradient4223" />
    <linearGradient
       id="linearGradient4225" />
    <linearGradient
       id="linearGradient4227" />
    <linearGradient
       id="linearGradient4229" />
    <linearGradient
       id="linearGradient4231" />
    <radialGradient
       inkscape:collect="always"
       xlink:href="#radargradient"
       id="radialGradient3471"
       gradientUnits="userSpaceOnUse"
       gradientTransform="matrix(1.3181919,0,0,2.0293406,-230.58372,548.57056)"
       cx="724.6687"
       cy="-532.9339"
       fx="724.6687"
       fy="-532.9339"
       r="234.88516" />
  </defs>
  <g
     id="layer1"
     transform="rotate(-90,416.13258,628.80131)">
    <ellipse
       style="fill:url(#radialGradient3471);fill-opacity:1;stroke:none;stroke-width:5.77877;stroke-miterlimit:4;stroke-dasharray:none;stroke-opacity:1"
       id="forcefield"
       cx="724.6687"
       cy="-532.9339"
       rx="309.62372"
       ry="476.66202"
       inkscape:label="Force Field"
       transform="rotate(90)" />
    <g
       id="g3676"
       inkscape:label="Car"
       transform="matrix(0.66917202,0,0,0.66917202,176.31072,239.7455)">
      <path
         id="Body"
         fill-opacity="0.99608"
         fill="#ca0000"
         d="m 610.52,493.69 c -1.5086,0.009 -4.7211,0.30611 -6.4687,0.9375 l -3.5,1.5 8.6562,35.844 -124.81,0.28125 c -77.963,0.1654 -166.52,-11.504 -232.93,-9.5 -66.412,2.0037 -152.12,28 -152.12,28 l -13.687,3.7812 c -19.251,5.2963 -25.718,97.367 -25.718,166.78 0,1.113 0.02665,2.2531 0.03125,3.375 -0.0046,1.1219 -0.03125,2.262 -0.03125,3.375 0,69.414 6.4673,161.48 25.718,166.78 l 13.687,3.7812 c 0,0 85.711,25.996 152.12,28 66.412,2.0037 154.97,-9.6654 232.93,-9.5 l 124.81,0.28125 -8.6562,35.844 3.5,1.5 c 1.7476,0.63139 4.96,0.92854 6.4687,0.9375 0.84859,0.005 1.7551,-0.0744 2.6875,-0.25 0.3107,-0.0584 0.62352,-0.14119 0.93749,-0.21875 0.30459,-0.0754 0.63259,-0.15686 0.93749,-0.25 0.62844,-0.19269 1.2635,-0.42206 1.875,-0.6875 1.8215,-0.79201 3.5342,-1.9028 4.7812,-3.2812 0.01,-0.0107 0.0217,-0.0208 0.0312,-0.0312 0.6248,-0.69658 1.1123,-1.4528 1.4687,-2.2812 l 12.156,-31.25 109.94,0.25 c 23.9,11.942 45.511,10.719 73.593,10.719 133.25,0 187.63002,-86.586 187.00002,-201.38 0,-0.7802 -0.019,-1.5656 -0.031,-2.3438 0.012,-0.77811 0.031,-1.5636 0.031,-2.3438 0.6282,-114.79 -53.74902,-201.38 -187.00002,-201.38 -28.082,0 -49.693,-1.2236 -73.593,10.719 l -109.94,0.25 -12.156,-31.25 c -0.35645,-0.82844 -0.84393,-1.5847 -1.4687,-2.2812 -0.01,-0.0104 -0.0213,-0.0206 -0.0312,-0.0312 -1.247,-1.3785 -2.9597,-2.4892 -4.7812,-3.2812 -0.61148,-0.26544 -1.2465,-0.49481 -1.875,-0.6875 -0.3049,-0.0931 -0.6329,-0.1746 -0.93749,-0.25 -0.31397,-0.0776 -0.62679,-0.16035 -0.93749,-0.21875 -0.93239,-0.1756 -1.8389,-0.255 -2.6875,-0.25 z"
         style="fill:#999999;stroke:#191919;stroke-width:6.54064;stroke-miterlimit:4;stroke-dasharray:none;stroke-opacity:1"
         sodipodi:nodetypes="ccccccccscscccccccssscccccccscccsccccccccccc" />
      <path
         id="path3643"
         opacity="0.9"
         d="m 400.34,855.24 c -33.364,0 -65.307,1.8 -94.811,5.0625 25.66,48.714 97.985,30.265 205.56,31.531 49.686,0.58471 89.543,1.8793 121.53,2.375 -47.16,-23.334 -133.53,-38.969 -232.28,-38.969 z"
         fill-opacity="0.99608"
         fill="#262626"
         inkscape:label="WindowRight"
         style="stroke:#000000;stroke-width:5;stroke-miterlimit:4;stroke-dasharray:none;stroke-opacity:1" />
      <path
         id="path3658"
         opacity="0.5"
         d="m 400.34,855.24 c -3.2064,0 -6.3831,0.0295 -9.5624,0.0625 0.81825,16.171 6.4281,30.257 14.594,38.844 4.6714,-0.0756 9.4951,-0.19655 14.437,-0.34375 -8.5657,-8.1923 -14.593,-22.228 -15.719,-38.562 -1.2512,-0.005 -2.4947,0 -3.75,0 z"
         fill-opacity="0.99608"
         inkscape:label="BPillarRight" />
      <path
         id="RightHeadlight"
         style="color:#000000;text-indent:0;text-transform:none"
         d="m 989.02,827.5 -5.0937,0.59375 c -21.545,2.5127 -37.688,25.979 -39.281,54.531 l -0.37499,7.125 5.2499,-4.8438 c 15.889,-14.68 28.303,-32.507 37.406,-52.75 l 2.09,-4.65 z"
         stroke="#191919"
         stroke-width="5"
         fill="#212121" />
      <path
         id="HoodRidge"
         opacity="0.5"
         stroke-linejoin="round"
         d="m 777.50112,908.5 c 0,0 71.60726,-22.596 94.70705,-31.982 24.12072,-9.8018 88.84649,-39.146 88.84649,-39.146 M 777.50112,627.5 c 0,0 71.60726,22.596 94.70705,31.982 24.12072,9.8018 88.84649,39.146 88.84649,39.146"
         stroke="#292929"
         stroke-linecap="round"
         stroke-width="5.68805"
         fill="none"
         sodipodi:nodetypes="ccc"
         inkscape:path-effect="#path-effect2903"
         inkscape:original-d="m 777.50112,908.5 c 0,0 71.60726,-22.596 94.70705,-31.982 24.12072,-9.8018 88.84649,-39.146 88.84649,-39.146"
         transform="translate(0,-42)" />
      <path
         id="RearWindow"
         opacity="0.9"
         d="m 260.5,607.38 -77.749,12.469 c -27.15,4.3542 -48.947,48.773 -50.999,104.84 2.0523,56.071 23.849,100.49 50.999,104.84 l 77.749,12.469 c 13.296,0 24,-10.704 24,-24 v -186.62 c 0,-13.296 -10.704,-24 -24,-24 z"
         fill-opacity="0.99608"
         stroke="#191919"
         stroke-width="5"
         fill="#262626"
         inkscape:label="RearWindow"
         style="stroke:#000001;stroke-opacity:1" />
      <path
         id="Windshield"
         opacity="0.9"
         d="m 691.96,573.16 c -2.9692,0 -5.8933,0.33215 -8.7812,0.96875 -0.0104,-0.01 -0.0208,-0.021 -0.0312,-0.0312 l -63.843,12.312 c -17.728,6.6047 -32,14.272 -32,32 v 212.56 c 0,17.728 14.272,25.395 32,32 l 63.843,12.312 c 0.0105,-0.0102 0.0208,-0.0211 0.0312,-0.0312 2.8879,0.6366 5.812,0.96875 8.7812,0.96875 45.395,0 82.198,-57.363 82.312,-151.53 -0.11408,-94.169 -36.916,-151.53 -82.312,-151.53 z"
         fill-opacity="0.99608"
         stroke="#191919"
         stroke-width="5"
         fill="#262626"
         style="stroke:#000001;stroke-opacity:1" />
      <path
         id="path4157"
         opacity="0.9"
         d="m 400.34,594.15 c -33.364,0 -65.307,-1.8 -94.811,-5.0625 25.66,-48.714 97.985,-30.265 205.56,-31.531 49.686,-0.58471 89.543,-1.8793 121.53,-2.375 -47.16,23.334 -133.53,38.969 -232.28,38.969 z"
         fill-opacity="0.99608"
         fill="#262626"
         inkscape:label="WindowLeft"
         style="stroke:#000000;stroke-width:5;stroke-miterlimit:4;stroke-dasharray:none;stroke-opacity:1" />
      <path
         id="path4159"
         opacity="0.5"
         d="m 400.34,594.15 c -3.2064,0 -6.3831,-0.0295 -9.5624,-0.0625 0.81825,-16.171 6.4281,-30.257 14.594,-38.844 4.6714,0.0756 9.4951,0.19655 14.437,0.34375 -8.5657,8.1923 -14.593,22.228 -15.719,38.562 -1.2512,0.005 -2.4947,0 -3.75,0 z"
         fill-opacity="0.99608"
         inkscape:label="BPillarLeft" />
      <path
         id="LeftHeadlight"
         style="color:#000000;text-indent:0;text-transform:none"
         d="m 989.02,621.89 -5.0937,-0.59375 c -21.545,-2.5127 -37.688,-25.979 -39.281,-54.531 l -0.37499,-7.125 5.2499,4.8438 c 15.889,14.68 28.303,32.507 37.406,52.75 l 2.0937,4.6562 z"
         stroke="#191919"
         stroke-width="5"
         fill="#212121" />
    </g>
  </g>
  <metadata
     id="metadata">
    <rdf:RDF>
      <cc:Work>
        <dc:format>image/svg+xml</dc:format>
        <dc:type
           rdf:resource="http://purl.org/dc/dcmitype/StillImage" />
        <cc:license
           rdf:resource="http://creativecommons.org/licenses/by-nc-sa/4.0/" />
        <dc:title>Optic Logo</dc:title>
        <dc:date>2023-12-04</dc:date>
        <dc:creator>
          <cc:Agent>
            <dc:title>Conner Vieira</dc:title>
          </cc:Agent>
        </dc:creator>
        <dc:publisher>
          <cc:Agent>
            <dc:title>V0LT</dc:title>
          </cc:Agent>
        </dc:publisher>
      </cc:Work>
      <cc:License
         rdf:about="http://creativecommons.org/licenses/by-nc-sa/4.0/">
        <cc:permits
           rdf:resource="http://creativecommons.org/ns#Reproduction" />
        <cc:permits
           rdf:resource="http://creativecommons.org/ns#Distribution" />
        <cc:requires
           rdf:resource="http://creativecommons.org/ns#Notice" />
        <cc:requires
           rdf:resource="http://creativecommons.org/ns#Attribution" />
        <cc:prohibits
           rdf:resource="http://creativecommons.org/ns#CommercialUse" />
        <cc:permits
           rdf:resource="http://creativecommons.org/ns#DerivativeWorks" />
        <cc:requires
           rdf:resource="http://creativecommons.org/ns#ShareAlike" />
      </cc:License>
    </rdf:RDF>
  </metadata>
</svg>
